<?xml version="1.0" encoding="UTF-8"?>
<!DOCTYPE svg PUBLIC "-//W3C//DTD SVG 1.1//EN" "http://www.w3.org/Graphics/SVG/1.1/DTD/svg11.dtd">
<!-- Creator: CorelDRAW 2020 (64-Bit) -->
<svg xmlns="http://www.w3.org/2000/svg" xml:space="preserve" width="8.26772in" height="8.26772in" version="1.1" style="shape-rendering:geometricPrecision; text-rendering:geometricPrecision; image-rendering:optimizeQuality; fill-rule:evenodd; clip-rule:evenodd"
viewBox="0 0 8267.72 8267.72"
 xmlns:xlink="http://www.w3.org/1999/xlink"
 xmlns:xodm="http://www.corel.com/coreldraw/odm/2003">
 <defs>
  <style type="text/css">
   <![CDATA[
    .fil0 {fill:url(#id0)}
    .fil1 {fill:url(#id1)}
    .fil4 {fill:url(#id2);fill-opacity:0.501961}
    .fil3 {fill:url(#id3);fill-opacity:0.501961}
    .fil2 {fill:url(#id4);fill-opacity:0.760784}
   ]]>
  </style>
  <radialGradient id="id0" gradientUnits="userSpaceOnUse" gradientTransform="matrix(0.701918 -0.0307651 0.0460815 1.05128 1068 -64)" cx="4162.12" cy="3746.59" r="2526.25" fx="4162.12" fy="3746.59">
   <stop offset="0" style="stop-opacity:1; stop-color:#58E009"/>
   <stop offset="1" style="stop-opacity:1; stop-color:#01783E"/>
  </radialGradient>
  <radialGradient id="id1" gradientUnits="userSpaceOnUse" gradientTransform="matrix(0.078105 0.929406 -1.03031 -0.0305606 7551 -193)" cx="4183.65" cy="3585.82" r="1283.76" fx="4183.65" fy="3585.82">
   <stop offset="0" style="stop-opacity:1; stop-color:#009EFA"/>
   <stop offset="0.690196" style="stop-opacity:1; stop-color:#146DC5"/>
   <stop offset="1" style="stop-opacity:1; stop-color:#283D90"/>
  </radialGradient>
  <linearGradient id="id2" gradientUnits="userSpaceOnUse" x1="4146.83" y1="2527.07" x2="4073.38" y2="4523.23">
   <stop offset="0" style="stop-opacity:1; stop-color:#283D90"/>
   <stop offset="0.301961" style="stop-opacity:1; stop-color:#156BC3"/>
   <stop offset="1" style="stop-opacity:1; stop-color:#029AF6"/>
  </linearGradient>
  <linearGradient id="id3" gradientUnits="userSpaceOnUse" x1="3083.8" y1="3335.73" x2="4250.46" y2="4471.15">
   <stop offset="0" style="stop-opacity:1; stop-color:#037A3D"/>
   <stop offset="0.670588" style="stop-opacity:1; stop-color:#2BAA25"/>
   <stop offset="1" style="stop-opacity:1; stop-color:#53DA0C"/>
  </linearGradient>
  <linearGradient id="id4" gradientUnits="userSpaceOnUse" x1="4051.07" y1="2296.44" x2="3618.99" y2="5758.33">
   <stop offset="0" style="stop-opacity:1; stop-color:#01783E"/>
   <stop offset="0.568627" style="stop-opacity:1; stop-color:#26A21F"/>
   <stop offset="1" style="stop-opacity:1; stop-color:#4BCC00"/>
  </linearGradient>
 </defs>
 <g id="Layer_x0020_1">
  <metadata id="CorelCorpID_0Corel-Layer"/>
  <path class="fil0" d="M4207.03 1065.67c0,0 70.29,627.62 492.16,1263.03 421.87,635.41 979.15,1437.5 1093.74,1718.75 114.58,281.25 255.19,880.22 67.69,1276.05 -187.5,395.83 -515.63,687.5 -1020.83,567.71 -505.21,-119.79 -781.25,-692.71 -828.13,-833.33 -46.87,-140.62 -36.46,-348.96 -36.46,-348.96 0,0 -197.92,526.04 223.96,973.96 421.88,447.92 699.22,432.29 701.83,447.92 2.6,15.63 -544.11,169.63 -998.7,-192.71 -527.73,-420.63 -546.87,-1187.5 -244.79,-1679.69 302.09,-492.19 683.83,-647.25 678.05,-624.3 -5.79,22.95 -188.46,848.26 431.33,1408.15 619.79,559.89 1007.15,173.26 838.54,-531.25 -130.7,-546.1 -796.22,-1403.65 -1069.66,-1798.18 -273.44,-394.54 -341.79,-679.7 -354.8,-686.21 -5.03,-2.51 -102.6,254.33 -279.73,529.25 -356.41,553.19 -615.43,1057.69 -755.96,1364.3 -229.16,500 -334.07,1136.4 -18.97,1612.96 315.11,476.56 845.06,688.15 845.06,688.15 0,0 -632.24,-37.68 -1108.07,-577.48 -504.13,-571.9 -348.96,-1338.55 -255.21,-1567.72 93.75,-229.17 182.27,-468.75 401.02,-833.33 218.75,-364.58 507.81,-776.04 768.23,-1229.17 260.42,-453.13 429.72,-947.92 429.72,-947.92z"/>
  <path class="fil1" d="M4184.09 2466.65c0,0 166.67,346.35 377.61,635.42 210.94,289.06 459.65,644.53 553.39,785.16 93.75,140.63 287.76,506.52 324.22,726.57 36.46,220.06 44.27,509.12 -37.76,562.51 -82.03,53.39 -359.38,33.85 -656.25,-315.11 -296.87,-348.96 -375.01,-738.28 -354.17,-1009.11 20.83,-270.83 102.87,-420.58 102.87,-420.58 0,0 -244.79,97.65 -533.85,329.43 -289.06,231.77 -476.55,552.09 -565.09,914.07 -88.54,361.98 31.24,713.54 96.35,872.4 65.11,158.85 127.61,210.94 127.61,210.94 0,0 -226.56,-156.25 -367.19,-419.27 -140.63,-263.02 -135.41,-617.19 -83.33,-817.71 52.08,-200.52 182.3,-653.65 492.19,-1182.3 309.89,-528.65 523.42,-872.4 523.42,-872.4z"/>
  <path class="fil2" d="M4164.94 1854.96c-0.24,-1.05 -0.36,-1.59 -0.36,-1.59 0,0 0.4,0.07 0.36,1.59zm-1283.86 2795.75c3.11,-59.06 30.98,-466.13 223.61,-875.46 208.33,-442.71 726.56,-1231.77 901.04,-1575.52 146.53,-288.69 158.98,-336.77 159.21,-344.76 5.72,25.17 80.93,344.72 280.89,654.66 208.33,322.92 546.87,813.8 576.82,842.45 29.95,28.65 404.93,582.02 527.33,904.94 78.53,207.18 106.39,428.1 116.28,559.87 74.67,58.73 145.78,121.76 213.08,188.63 21.87,-141.69 31.98,-354.67 -35.11,-590.95 -119.79,-421.87 -257.81,-726.57 -515.62,-1085.94 -257.81,-359.38 -507.81,-679.69 -755.2,-1130.21 -247.39,-450.52 -341.15,-822.92 -369.79,-986.98 -5.83,-33.38 -10.58,-65.58 -14.45,-95.69 -49.89,136.76 -201.01,530.96 -411.87,897.85 -260.42,453.13 -549.48,864.59 -768.23,1229.17 -218.75,364.58 -307.27,604.16 -401.02,833.33 -40,97.77 -91.17,293.38 -97.56,529.96l41.14 285.32c102.69,-88.99 212.87,-169.54 329.45,-240.66z"/>
  <path class="fil3" d="M4251.72 4295.96c-60.86,-285.56 -30.15,-532.24 -14.19,-624.09 -132.15,72.88 -374.52,251.69 -580.03,586.52 -15.3,24.93 -29.78,50.56 -43.4,76.81 145.68,-27.03 295.89,-41.16 449.41,-41.16 15.13,0 30.22,0.14 45.28,0.41 15.06,-0.27 30.15,-0.41 45.27,-0.41 32.71,0 65.27,0.64 97.67,1.91z"/>
  <path class="fil4" d="M3860.2 3714.85c119.67,-95.95 248.46,-183.13 382.97,-256.97 52.39,-28.76 110.25,-59.02 165.94,-81.23l111.52 -44.49 -29.81 100.65c2.1,-0.87 3.18,-1.3 3.18,-1.3 0,0 -2.57,4.69 -6.91,13.91l-4.28 14.45c-6.12,11.26 -11.91,23.93 -17.3,37.08 -25.78,68.39 -61.6,188.97 -74.38,355.15 -10.09,131.2 3.04,290.22 53.02,458.98 329.46,38.9 638.87,143.22 914.91,299.62 -16.44,-94.63 -56.98,-207.45 -85.86,-270.94 -263.09,-578.62 -770.55,-1218.58 -1031.05,-1636.73 -21.56,-38.88 -74.52,-136.17 -95.3,-175.93 -6.55,10.66 -13.92,22.68 -22.07,36 -153.87,251.8 -329.92,556.41 -476.15,805.85 -138.13,235.65 -256.24,483.13 -351.2,739.18 -60.09,164.15 -98.56,298.34 -122.78,389.74 56.16,-24.54 113.41,-47.04 171.67,-67.4 106.21,-278.54 276.77,-525.48 513.89,-715.6z"/>
 </g>
</svg>
